<mxfile host="app.diagrams.net" modified="2020-11-18T09:37:30.710Z" agent="5.0 (Windows NT 10.0; Win64; x64) AppleWebKit/537.36 (KHTML, like Gecko) Chrome/85.0.4183.102 Safari/537.36" etag="RRLbha6-rEotBtCM688H" version="13.9.2" type="github">
  <diagram name="Page-1" id="64c3da0e-402f-94eb-ee01-a36477274f13">
    <mxGraphModel dx="2370" dy="1270" grid="1" gridSize="13" guides="1" tooltips="1" connect="1" arrows="1" fold="1" page="1" pageScale="1" pageWidth="1169" pageHeight="826" math="0" shadow="0">
      <root>
        <mxCell id="0" />
        <mxCell id="1" parent="0" />
        <mxCell id="2" value="广西医疗健康服务平台架构" style="whiteSpace=wrap;rounded=1;shadow=1;fillColor=#B2C9AB;strokeColor=none;fontColor=#46495D;fontStyle=1;fontSize=24" parent="1" vertex="1">
          <mxGeometry x="1000" y="10" width="340" height="60" as="geometry" />
        </mxCell>
        <mxCell id="3" value="访问层" style="whiteSpace=wrap;rounded=1;fillColor=#B2C9AB;strokeColor=none;shadow=1;fontColor=#46495D;fontStyle=1;fontSize=14" parent="1" vertex="1">
          <mxGeometry x="40" y="180" width="140" height="60" as="geometry" />
        </mxCell>
        <mxCell id="4" value="统一入口层" style="whiteSpace=wrap;rounded=1;fillColor=#B2C9AB;strokeColor=none;shadow=1;fontColor=#46495D;fontStyle=1;fontSize=14" parent="1" vertex="1">
          <mxGeometry x="530" y="169.9999999999998" width="140" height="60" as="geometry" />
        </mxCell>
        <mxCell id="5" value="SUB-PROJECT 6" style="whiteSpace=wrap;rounded=1;fillColor=#B2C9AB;strokeColor=none;shadow=1;fontColor=#46495D;fontStyle=1;fontSize=14" parent="1" vertex="1">
          <mxGeometry x="2010" y="169.9999999999998" width="140" height="60" as="geometry" />
        </mxCell>
        <mxCell id="8" value="SUB-PROJECT 5" style="whiteSpace=wrap;rounded=1;fillColor=#B2C9AB;strokeColor=none;shadow=1;fontColor=#46495D;fontStyle=1;fontSize=14" parent="1" vertex="1">
          <mxGeometry x="1640" y="169.9999999999998" width="140" height="60" as="geometry" />
        </mxCell>
        <mxCell id="23" value="支付宝小程序" style="whiteSpace=wrap;rounded=1;fillColor=#B2C9AB;strokeColor=none;shadow=1;fontColor=#46495D;fontStyle=0;fontSize=18;" parent="1" vertex="1">
          <mxGeometry x="169.99999999999994" y="290.0000000000001" width="120" height="60" as="geometry" />
        </mxCell>
        <mxCell id="24" value="PC端" style="whiteSpace=wrap;rounded=1;fillColor=#B2C9AB;strokeColor=none;shadow=1;fontColor=#46495D;fontStyle=1;fontSize=18;" parent="1" vertex="1">
          <mxGeometry x="170.0000000000001" y="383.0000000000001" width="120" height="60" as="geometry" />
        </mxCell>
        <mxCell id="26" value="微信小程序" style="whiteSpace=wrap;rounded=1;fillColor=#B2C9AB;strokeColor=none;shadow=1;fontColor=#46495D;fontStyle=1;fontSize=18;" parent="1" vertex="1">
          <mxGeometry x="170.0000000000002" y="470.0000000000001" width="120" height="60" as="geometry" />
        </mxCell>
        <mxCell id="43" value="nginx" style="whiteSpace=wrap;rounded=1;fillColor=#B2C9AB;strokeColor=none;shadow=1;fontColor=#46495D;fontStyle=1;fontSize=16;" parent="1" vertex="1">
          <mxGeometry x="539.9999999999998" y="273.0000000000001" width="120" height="60" as="geometry" />
        </mxCell>
        <mxCell id="103" value="" style="edgeStyle=elbowEdgeStyle;elbow=vertical;rounded=0;fontColor=#46495D;endArrow=none;endFill=0;strokeWidth=4;strokeColor=#788AA3;" parent="1" source="3" edge="1">
          <mxGeometry width="100" height="100" relative="1" as="geometry">
            <mxPoint x="20" y="290" as="sourcePoint" />
            <mxPoint x="110" y="360" as="targetPoint" />
          </mxGeometry>
        </mxCell>
        <mxCell id="105" value="" style="edgeStyle=elbowEdgeStyle;elbow=horizontal;rounded=0;fontColor=#46495D;endArrow=none;endFill=0;strokeWidth=4;strokeColor=#788AA3;" parent="1" target="23" edge="1">
          <mxGeometry width="100" height="100" relative="1" as="geometry">
            <mxPoint x="110" y="360" as="sourcePoint" />
            <mxPoint x="110" y="380" as="targetPoint" />
            <Array as="points">
              <mxPoint x="110" y="430" />
              <mxPoint x="50" y="380" />
            </Array>
          </mxGeometry>
        </mxCell>
        <mxCell id="106" value="" style="edgeStyle=elbowEdgeStyle;elbow=horizontal;rounded=0;fontColor=#46495D;endArrow=none;endFill=0;strokeWidth=4;strokeColor=#788AA3;" parent="1" target="24" edge="1">
          <mxGeometry width="100" height="100" relative="1" as="geometry">
            <mxPoint x="110" y="360" as="sourcePoint" />
            <mxPoint x="80" y="440" as="targetPoint" />
            <Array as="points">
              <mxPoint x="110" y="480" />
              <mxPoint x="50" y="400" />
            </Array>
          </mxGeometry>
        </mxCell>
        <mxCell id="109" value="" style="edgeStyle=elbowEdgeStyle;elbow=horizontal;rounded=0;fontColor=#46495D;endArrow=none;endFill=0;strokeWidth=4;strokeColor=#788AA3;" parent="1" target="26" edge="1">
          <mxGeometry width="100" height="100" relative="1" as="geometry">
            <mxPoint x="110" y="340" as="sourcePoint" />
            <mxPoint x="100" y="460" as="targetPoint" />
            <Array as="points">
              <mxPoint x="110" y="510" />
              <mxPoint x="50" y="410" />
            </Array>
          </mxGeometry>
        </mxCell>
        <mxCell id="116" value="" style="edgeStyle=elbowEdgeStyle;elbow=vertical;rounded=0;fontColor=#46495D;endArrow=none;endFill=0;strokeWidth=4;strokeColor=#788AA3;" parent="1" source="4" target="43" edge="1">
          <mxGeometry width="100" height="100" relative="1" as="geometry">
            <mxPoint x="240" y="239.99999999999977" as="sourcePoint" />
            <mxPoint x="140" y="310" as="targetPoint" />
          </mxGeometry>
        </mxCell>
        <mxCell id="D-E3E2ECpoi-iPH8ubSQ-251" value="" style="edgeStyle=orthogonalEdgeStyle;curved=0;rounded=1;sketch=0;orthogonalLoop=1;jettySize=auto;html=1;strokeColor=#788AA3;fillColor=#B2C9AB;fontSize=18;fontColor=#46495D;" edge="1" parent="1">
          <mxGeometry relative="1" as="geometry">
            <mxPoint x="1069.9999999999986" y="400" as="sourcePoint" />
            <mxPoint x="1069.9999999999986" y="360" as="targetPoint" />
          </mxGeometry>
        </mxCell>
        <mxCell id="177" value="SUB-TASK 1" style="whiteSpace=wrap;rounded=1;fillColor=#B2C9AB;strokeColor=none;shadow=1;fontColor=#46495D;" parent="1" vertex="1">
          <mxGeometry x="1549.9999999999998" y="299.9999999999999" width="120" height="60" as="geometry" />
        </mxCell>
        <mxCell id="178" value="SUB-TASK 2" style="whiteSpace=wrap;rounded=1;fillColor=#B2C9AB;strokeColor=none;shadow=1;fontColor=#46495D;" parent="1" vertex="1">
          <mxGeometry x="1749.9999999999998" y="299.9999999999999" width="120" height="60" as="geometry" />
        </mxCell>
        <mxCell id="179" value="WORK&#xa;PACKAGE 1" style="whiteSpace=wrap;rounded=1;fillColor=#B2C9AB;strokeColor=none;shadow=1;fontColor=#46495D;fontStyle=0" parent="1" vertex="1">
          <mxGeometry x="1549.9999999999998" y="399.9999999999999" width="120" height="60" as="geometry" />
        </mxCell>
        <mxCell id="180" value="WORK&#xa;PACKAGE 2" style="whiteSpace=wrap;rounded=1;fillColor=#B2C9AB;strokeColor=none;shadow=1;fontColor=#46495D;fontStyle=0" parent="1" vertex="1">
          <mxGeometry x="1550" y="479.9999999999999" width="120" height="60" as="geometry" />
        </mxCell>
        <mxCell id="181" value="WORK&#xa;PACKAGE 3" style="whiteSpace=wrap;rounded=1;fillColor=#B2C9AB;strokeColor=none;shadow=1;fontColor=#46495D;fontStyle=0" parent="1" vertex="1">
          <mxGeometry x="1549.9999999999998" y="559.9999999999999" width="120" height="60" as="geometry" />
        </mxCell>
        <mxCell id="182" value="WORK&#xa;PACKAGE 4" style="whiteSpace=wrap;rounded=1;fillColor=#B2C9AB;strokeColor=none;shadow=1;fontColor=#46495D;fontStyle=0" parent="1" vertex="1">
          <mxGeometry x="1550" y="639.9999999999999" width="120" height="60" as="geometry" />
        </mxCell>
        <mxCell id="183" value="WORK&#xa;PACKAGE 5" style="whiteSpace=wrap;rounded=1;fillColor=#B2C9AB;strokeColor=none;shadow=1;fontColor=#46495D;fontStyle=0" parent="1" vertex="1">
          <mxGeometry x="1550" y="719.9999999999999" width="120" height="60" as="geometry" />
        </mxCell>
        <mxCell id="184" value="WORK&#xa;PACKAGE 1" style="whiteSpace=wrap;rounded=1;fillColor=#B2C9AB;strokeColor=none;shadow=1;fontColor=#46495D;fontStyle=0" parent="1" vertex="1">
          <mxGeometry x="1749.9999999999993" y="399.9999999999999" width="120" height="60" as="geometry" />
        </mxCell>
        <mxCell id="185" value="WORK&#xa;PACKAGE 2" style="whiteSpace=wrap;rounded=1;fillColor=#B2C9AB;strokeColor=none;shadow=1;fontColor=#46495D;fontStyle=0" parent="1" vertex="1">
          <mxGeometry x="1749.9999999999995" y="479.9999999999999" width="120" height="60" as="geometry" />
        </mxCell>
        <mxCell id="186" value="WORK&#xa;PACKAGE 3" style="whiteSpace=wrap;rounded=1;fillColor=#B2C9AB;strokeColor=none;shadow=1;fontColor=#46495D;fontStyle=0" parent="1" vertex="1">
          <mxGeometry x="1749.9999999999995" y="559.9999999999999" width="120" height="60" as="geometry" />
        </mxCell>
        <mxCell id="187" value="WORK&#xa;PACKAGE 4" style="whiteSpace=wrap;rounded=1;fillColor=#B2C9AB;strokeColor=none;shadow=1;fontColor=#46495D;fontStyle=0" parent="1" vertex="1">
          <mxGeometry x="1749.9999999999995" y="639.9999999999999" width="120" height="60" as="geometry" />
        </mxCell>
        <mxCell id="188" value="WORK&#xa;PACKAGE 5" style="whiteSpace=wrap;rounded=1;fillColor=#B2C9AB;strokeColor=none;shadow=1;fontColor=#46495D;fontStyle=0" parent="1" vertex="1">
          <mxGeometry x="1749.9999999999998" y="719.9999999999999" width="120" height="60" as="geometry" />
        </mxCell>
        <mxCell id="189" value="" style="edgeStyle=elbowEdgeStyle;elbow=horizontal;rounded=0;fontColor=#46495D;endArrow=none;endFill=0;strokeWidth=8;strokeColor=#788AA3;" parent="1" source="177" target="179" edge="1">
          <mxGeometry width="100" height="100" relative="1" as="geometry">
            <mxPoint x="1530" y="330.0000000000002" as="sourcePoint" />
            <mxPoint x="1539.9999999999995" y="429.9999999999998" as="targetPoint" />
            <Array as="points">
              <mxPoint x="1530" y="379.9999999999998" />
            </Array>
          </mxGeometry>
        </mxCell>
        <mxCell id="190" value="" style="edgeStyle=elbowEdgeStyle;elbow=horizontal;rounded=0;fontColor=#46495D;endArrow=none;endFill=0;strokeWidth=8;strokeColor=#788AA3;" parent="1" source="177" target="180" edge="1">
          <mxGeometry width="100" height="100" relative="1" as="geometry">
            <mxPoint x="1540" y="329.9999999999998" as="sourcePoint" />
            <mxPoint x="1539.9999999999998" y="509.9999999999998" as="targetPoint" />
            <Array as="points">
              <mxPoint x="1530" y="419.9999999999998" />
            </Array>
          </mxGeometry>
        </mxCell>
        <mxCell id="191" value="" style="edgeStyle=elbowEdgeStyle;elbow=horizontal;rounded=0;fontColor=#46495D;endArrow=none;endFill=0;strokeWidth=8;strokeColor=#788AA3;" parent="1" source="177" target="183" edge="1">
          <mxGeometry width="100" height="100" relative="1" as="geometry">
            <mxPoint x="1540" y="329.9999999999998" as="sourcePoint" />
            <mxPoint x="1540" y="749.9999999999998" as="targetPoint" />
            <Array as="points">
              <mxPoint x="1530" y="549.9999999999998" />
            </Array>
          </mxGeometry>
        </mxCell>
        <mxCell id="192" value="" style="edgeStyle=elbowEdgeStyle;elbow=horizontal;rounded=0;fontColor=#46495D;endArrow=none;endFill=0;strokeWidth=8;strokeColor=#788AA3;" parent="1" source="177" target="182" edge="1">
          <mxGeometry width="100" height="100" relative="1" as="geometry">
            <mxPoint x="1540" y="329.9999999999998" as="sourcePoint" />
            <mxPoint x="1540" y="669.9999999999998" as="targetPoint" />
            <Array as="points">
              <mxPoint x="1530" y="499.9999999999998" />
            </Array>
          </mxGeometry>
        </mxCell>
        <mxCell id="193" value="" style="edgeStyle=elbowEdgeStyle;elbow=horizontal;rounded=0;fontColor=#46495D;endArrow=none;endFill=0;strokeWidth=8;strokeColor=#788AA3;" parent="1" source="177" target="181" edge="1">
          <mxGeometry width="100" height="100" relative="1" as="geometry">
            <mxPoint x="1540" y="329.9999999999998" as="sourcePoint" />
            <mxPoint x="1539.9999999999998" y="589.9999999999998" as="targetPoint" />
            <Array as="points">
              <mxPoint x="1530" y="469.9999999999998" />
            </Array>
          </mxGeometry>
        </mxCell>
        <mxCell id="194" value="" style="edgeStyle=elbowEdgeStyle;elbow=horizontal;rounded=0;fontColor=#46495D;endArrow=none;endFill=0;strokeWidth=8;strokeColor=#788AA3;" parent="1" source="178" target="184" edge="1">
          <mxGeometry width="100" height="100" relative="1" as="geometry">
            <mxPoint x="1720" y="330.0000000000002" as="sourcePoint" />
            <mxPoint x="1729.9999999999995" y="429.9999999999998" as="targetPoint" />
            <Array as="points">
              <mxPoint x="1730" y="379.9999999999998" />
            </Array>
          </mxGeometry>
        </mxCell>
        <mxCell id="195" value="" style="edgeStyle=elbowEdgeStyle;elbow=horizontal;rounded=0;fontColor=#46495D;endArrow=none;endFill=0;strokeWidth=8;strokeColor=#788AA3;" parent="1" source="178" target="185" edge="1">
          <mxGeometry width="100" height="100" relative="1" as="geometry">
            <mxPoint x="1730" y="329.9999999999998" as="sourcePoint" />
            <mxPoint x="1729.9999999999998" y="509.9999999999998" as="targetPoint" />
            <Array as="points">
              <mxPoint x="1730" y="419.9999999999998" />
            </Array>
          </mxGeometry>
        </mxCell>
        <mxCell id="196" value="" style="edgeStyle=elbowEdgeStyle;elbow=horizontal;rounded=0;fontColor=#46495D;endArrow=none;endFill=0;strokeWidth=8;strokeColor=#788AA3;" parent="1" source="178" target="188" edge="1">
          <mxGeometry width="100" height="100" relative="1" as="geometry">
            <mxPoint x="1730" y="329.9999999999998" as="sourcePoint" />
            <mxPoint x="1730" y="749.9999999999998" as="targetPoint" />
            <Array as="points">
              <mxPoint x="1730" y="539.9999999999998" />
            </Array>
          </mxGeometry>
        </mxCell>
        <mxCell id="197" value="" style="edgeStyle=elbowEdgeStyle;elbow=horizontal;rounded=0;fontColor=#46495D;endArrow=none;endFill=0;strokeWidth=8;strokeColor=#788AA3;" parent="1" source="178" target="187" edge="1">
          <mxGeometry width="100" height="100" relative="1" as="geometry">
            <mxPoint x="1730" y="329.9999999999998" as="sourcePoint" />
            <mxPoint x="1730" y="669.9999999999998" as="targetPoint" />
            <Array as="points">
              <mxPoint x="1730" y="499.9999999999998" />
            </Array>
          </mxGeometry>
        </mxCell>
        <mxCell id="198" value="" style="edgeStyle=elbowEdgeStyle;elbow=horizontal;rounded=0;fontColor=#46495D;endArrow=none;endFill=0;strokeWidth=8;strokeColor=#788AA3;" parent="1" source="178" target="186" edge="1">
          <mxGeometry width="100" height="100" relative="1" as="geometry">
            <mxPoint x="1730" y="329.9999999999998" as="sourcePoint" />
            <mxPoint x="1729.9999999999998" y="589.9999999999998" as="targetPoint" />
            <Array as="points">
              <mxPoint x="1730" y="469.9999999999998" />
            </Array>
          </mxGeometry>
        </mxCell>
        <mxCell id="199" value="SUB-TASK 1" style="whiteSpace=wrap;rounded=1;fillColor=#B2C9AB;strokeColor=none;shadow=1;fontColor=#46495D;" parent="1" vertex="1">
          <mxGeometry x="1919.9999999999998" y="299.9999999999997" width="120" height="60" as="geometry" />
        </mxCell>
        <mxCell id="200" value="SUB-TASK 2" style="whiteSpace=wrap;rounded=1;fillColor=#B2C9AB;strokeColor=none;shadow=1;fontColor=#46495D;" parent="1" vertex="1">
          <mxGeometry x="2120" y="299.9999999999997" width="120" height="60" as="geometry" />
        </mxCell>
        <mxCell id="201" value="WORK&#xa;PACKAGE 1" style="whiteSpace=wrap;rounded=1;fillColor=#B2C9AB;strokeColor=none;shadow=1;fontColor=#46495D;fontStyle=0" parent="1" vertex="1">
          <mxGeometry x="1919.9999999999998" y="399.9999999999997" width="120" height="60" as="geometry" />
        </mxCell>
        <mxCell id="202" value="WORK&#xa;PACKAGE 2" style="whiteSpace=wrap;rounded=1;fillColor=#B2C9AB;strokeColor=none;shadow=1;fontColor=#46495D;fontStyle=0" parent="1" vertex="1">
          <mxGeometry x="1920" y="479.9999999999997" width="120" height="60" as="geometry" />
        </mxCell>
        <mxCell id="203" value="WORK&#xa;PACKAGE 3" style="whiteSpace=wrap;rounded=1;fillColor=#B2C9AB;strokeColor=none;shadow=1;fontColor=#46495D;fontStyle=0" parent="1" vertex="1">
          <mxGeometry x="1919.9999999999998" y="559.9999999999997" width="120" height="60" as="geometry" />
        </mxCell>
        <mxCell id="204" value="WORK&#xa;PACKAGE 4" style="whiteSpace=wrap;rounded=1;fillColor=#B2C9AB;strokeColor=none;shadow=1;fontColor=#46495D;fontStyle=0" parent="1" vertex="1">
          <mxGeometry x="1920" y="639.9999999999997" width="120" height="60" as="geometry" />
        </mxCell>
        <mxCell id="205" value="WORK&#xa;PACKAGE 5" style="whiteSpace=wrap;rounded=1;fillColor=#B2C9AB;strokeColor=none;shadow=1;fontColor=#46495D;fontStyle=0" parent="1" vertex="1">
          <mxGeometry x="1920" y="719.9999999999997" width="120" height="60" as="geometry" />
        </mxCell>
        <mxCell id="206" value="WORK&#xa;PACKAGE 1" style="whiteSpace=wrap;rounded=1;fillColor=#B2C9AB;strokeColor=none;shadow=1;fontColor=#46495D;fontStyle=0" parent="1" vertex="1">
          <mxGeometry x="2119.999999999999" y="399.9999999999997" width="120" height="60" as="geometry" />
        </mxCell>
        <mxCell id="207" value="WORK&#xa;PACKAGE 2" style="whiteSpace=wrap;rounded=1;fillColor=#B2C9AB;strokeColor=none;shadow=1;fontColor=#46495D;fontStyle=0" parent="1" vertex="1">
          <mxGeometry x="2119.9999999999995" y="479.9999999999997" width="120" height="60" as="geometry" />
        </mxCell>
        <mxCell id="208" value="WORK&#xa;PACKAGE 3" style="whiteSpace=wrap;rounded=1;fillColor=#B2C9AB;strokeColor=none;shadow=1;fontColor=#46495D;fontStyle=0" parent="1" vertex="1">
          <mxGeometry x="2119.9999999999995" y="559.9999999999997" width="120" height="60" as="geometry" />
        </mxCell>
        <mxCell id="209" value="WORK&#xa;PACKAGE 4" style="whiteSpace=wrap;rounded=1;fillColor=#B2C9AB;strokeColor=none;shadow=1;fontColor=#46495D;fontStyle=0" parent="1" vertex="1">
          <mxGeometry x="2119.9999999999995" y="639.9999999999997" width="120" height="60" as="geometry" />
        </mxCell>
        <mxCell id="210" value="WORK&#xa;PACKAGE 5" style="whiteSpace=wrap;rounded=1;fillColor=#B2C9AB;strokeColor=none;shadow=1;fontColor=#46495D;fontStyle=0" parent="1" vertex="1">
          <mxGeometry x="2120" y="719.9999999999997" width="120" height="60" as="geometry" />
        </mxCell>
        <mxCell id="211" value="" style="edgeStyle=elbowEdgeStyle;elbow=horizontal;rounded=0;fontColor=#46495D;endArrow=none;endFill=0;strokeWidth=8;strokeColor=#788AA3;" parent="1" source="199" target="201" edge="1">
          <mxGeometry width="100" height="100" relative="1" as="geometry">
            <mxPoint x="1900" y="330.00000000000006" as="sourcePoint" />
            <mxPoint x="1909.9999999999995" y="429.9999999999996" as="targetPoint" />
            <Array as="points">
              <mxPoint x="1900" y="379.9999999999996" />
            </Array>
          </mxGeometry>
        </mxCell>
        <mxCell id="212" value="" style="edgeStyle=elbowEdgeStyle;elbow=horizontal;rounded=0;fontColor=#46495D;endArrow=none;endFill=0;strokeWidth=8;strokeColor=#788AA3;" parent="1" source="199" target="202" edge="1">
          <mxGeometry width="100" height="100" relative="1" as="geometry">
            <mxPoint x="1910" y="329.9999999999996" as="sourcePoint" />
            <mxPoint x="1909.9999999999998" y="509.9999999999996" as="targetPoint" />
            <Array as="points">
              <mxPoint x="1900" y="419.9999999999996" />
            </Array>
          </mxGeometry>
        </mxCell>
        <mxCell id="213" value="" style="edgeStyle=elbowEdgeStyle;elbow=horizontal;rounded=0;fontColor=#46495D;endArrow=none;endFill=0;strokeWidth=8;strokeColor=#788AA3;" parent="1" source="199" target="205" edge="1">
          <mxGeometry width="100" height="100" relative="1" as="geometry">
            <mxPoint x="1910" y="329.9999999999996" as="sourcePoint" />
            <mxPoint x="1910" y="749.9999999999995" as="targetPoint" />
            <Array as="points">
              <mxPoint x="1900" y="549.9999999999995" />
            </Array>
          </mxGeometry>
        </mxCell>
        <mxCell id="214" value="" style="edgeStyle=elbowEdgeStyle;elbow=horizontal;rounded=0;fontColor=#46495D;endArrow=none;endFill=0;strokeWidth=8;strokeColor=#788AA3;" parent="1" source="199" target="204" edge="1">
          <mxGeometry width="100" height="100" relative="1" as="geometry">
            <mxPoint x="1910" y="329.9999999999996" as="sourcePoint" />
            <mxPoint x="1910" y="669.9999999999995" as="targetPoint" />
            <Array as="points">
              <mxPoint x="1900" y="499.9999999999996" />
            </Array>
          </mxGeometry>
        </mxCell>
        <mxCell id="215" value="" style="edgeStyle=elbowEdgeStyle;elbow=horizontal;rounded=0;fontColor=#46495D;endArrow=none;endFill=0;strokeWidth=8;strokeColor=#788AA3;" parent="1" source="199" target="203" edge="1">
          <mxGeometry width="100" height="100" relative="1" as="geometry">
            <mxPoint x="1910" y="329.9999999999996" as="sourcePoint" />
            <mxPoint x="1909.9999999999998" y="589.9999999999995" as="targetPoint" />
            <Array as="points">
              <mxPoint x="1900" y="469.9999999999996" />
            </Array>
          </mxGeometry>
        </mxCell>
        <mxCell id="216" value="" style="edgeStyle=elbowEdgeStyle;elbow=horizontal;rounded=0;fontColor=#46495D;endArrow=none;endFill=0;strokeWidth=8;strokeColor=#788AA3;" parent="1" source="200" target="206" edge="1">
          <mxGeometry width="100" height="100" relative="1" as="geometry">
            <mxPoint x="2090" y="330.00000000000006" as="sourcePoint" />
            <mxPoint x="2099.9999999999995" y="429.9999999999996" as="targetPoint" />
            <Array as="points">
              <mxPoint x="2100" y="379.9999999999996" />
            </Array>
          </mxGeometry>
        </mxCell>
        <mxCell id="217" value="" style="edgeStyle=elbowEdgeStyle;elbow=horizontal;rounded=0;fontColor=#46495D;endArrow=none;endFill=0;strokeWidth=8;strokeColor=#788AA3;" parent="1" source="200" target="207" edge="1">
          <mxGeometry width="100" height="100" relative="1" as="geometry">
            <mxPoint x="2100" y="329.9999999999996" as="sourcePoint" />
            <mxPoint x="2100" y="509.9999999999996" as="targetPoint" />
            <Array as="points">
              <mxPoint x="2100" y="419.9999999999996" />
            </Array>
          </mxGeometry>
        </mxCell>
        <mxCell id="218" value="" style="edgeStyle=elbowEdgeStyle;elbow=horizontal;rounded=0;fontColor=#46495D;endArrow=none;endFill=0;strokeWidth=8;strokeColor=#788AA3;" parent="1" source="200" target="210" edge="1">
          <mxGeometry width="100" height="100" relative="1" as="geometry">
            <mxPoint x="2100" y="329.9999999999996" as="sourcePoint" />
            <mxPoint x="2100" y="749.9999999999995" as="targetPoint" />
            <Array as="points">
              <mxPoint x="2100" y="539.9999999999995" />
            </Array>
          </mxGeometry>
        </mxCell>
        <mxCell id="219" value="" style="edgeStyle=elbowEdgeStyle;elbow=horizontal;rounded=0;fontColor=#46495D;endArrow=none;endFill=0;strokeWidth=8;strokeColor=#788AA3;" parent="1" source="200" target="209" edge="1">
          <mxGeometry width="100" height="100" relative="1" as="geometry">
            <mxPoint x="2100" y="329.9999999999996" as="sourcePoint" />
            <mxPoint x="2100" y="669.9999999999995" as="targetPoint" />
            <Array as="points">
              <mxPoint x="2100" y="499.9999999999996" />
            </Array>
          </mxGeometry>
        </mxCell>
        <mxCell id="220" value="" style="edgeStyle=elbowEdgeStyle;elbow=horizontal;rounded=0;fontColor=#46495D;endArrow=none;endFill=0;strokeWidth=8;strokeColor=#788AA3;" parent="1" source="200" target="208" edge="1">
          <mxGeometry width="100" height="100" relative="1" as="geometry">
            <mxPoint x="2100" y="329.9999999999996" as="sourcePoint" />
            <mxPoint x="2100" y="589.9999999999995" as="targetPoint" />
            <Array as="points">
              <mxPoint x="2100" y="469.9999999999996" />
            </Array>
          </mxGeometry>
        </mxCell>
        <mxCell id="225" value="" style="edgeStyle=elbowEdgeStyle;elbow=vertical;rounded=0;fontColor=#46495D;endArrow=none;endFill=0;strokeWidth=8;strokeColor=#788AA3;" parent="1" source="8" target="177" edge="1">
          <mxGeometry width="100" height="100" relative="1" as="geometry">
            <mxPoint x="1550" y="290" as="sourcePoint" />
            <mxPoint x="1650" y="190" as="targetPoint" />
          </mxGeometry>
        </mxCell>
        <mxCell id="226" value="" style="edgeStyle=elbowEdgeStyle;elbow=vertical;rounded=0;fontColor=#46495D;endArrow=none;endFill=0;strokeWidth=8;strokeColor=#788AA3;" parent="1" source="8" target="178" edge="1">
          <mxGeometry width="100" height="100" relative="1" as="geometry">
            <mxPoint x="1780" y="290" as="sourcePoint" />
            <mxPoint x="1880" y="190" as="targetPoint" />
          </mxGeometry>
        </mxCell>
        <mxCell id="227" value="" style="edgeStyle=elbowEdgeStyle;elbow=vertical;rounded=0;fontColor=#46495D;endArrow=none;endFill=0;strokeWidth=8;strokeColor=#788AA3;" parent="1" source="5" target="199" edge="1">
          <mxGeometry width="100" height="100" relative="1" as="geometry">
            <mxPoint x="1900" y="290" as="sourcePoint" />
            <mxPoint x="2000" y="190" as="targetPoint" />
          </mxGeometry>
        </mxCell>
        <mxCell id="228" value="" style="edgeStyle=elbowEdgeStyle;elbow=vertical;rounded=0;fontColor=#46495D;endArrow=none;endFill=0;strokeWidth=8;strokeColor=#788AA3;" parent="1" source="5" target="200" edge="1">
          <mxGeometry width="100" height="100" relative="1" as="geometry">
            <mxPoint x="2160" y="290" as="sourcePoint" />
            <mxPoint x="2260" y="190" as="targetPoint" />
          </mxGeometry>
        </mxCell>
        <mxCell id="229" value="" style="edgeStyle=elbowEdgeStyle;elbow=vertical;rounded=0;fontColor=#46495D;endArrow=none;endFill=0;strokeWidth=8;strokeColor=#788AA3;" parent="1" source="2" target="3" edge="1">
          <mxGeometry width="100" height="100" relative="1" as="geometry">
            <mxPoint x="540" y="140" as="sourcePoint" />
            <mxPoint x="640" y="40" as="targetPoint" />
            <Array as="points">
              <mxPoint x="637" y="120" />
            </Array>
          </mxGeometry>
        </mxCell>
        <mxCell id="233" value="" style="edgeStyle=elbowEdgeStyle;elbow=vertical;rounded=0;fontColor=#46495D;endArrow=none;endFill=0;strokeWidth=8;strokeColor=#788AA3;" parent="1" source="2" target="8" edge="1">
          <mxGeometry width="100" height="100" relative="1" as="geometry">
            <mxPoint x="580" y="180" as="sourcePoint" />
            <mxPoint x="680" y="80" as="targetPoint" />
          </mxGeometry>
        </mxCell>
        <mxCell id="234" value="" style="edgeStyle=elbowEdgeStyle;elbow=vertical;rounded=0;fontColor=#46495D;endArrow=none;endFill=0;strokeWidth=8;strokeColor=#788AA3;" parent="1" source="2" target="5" edge="1">
          <mxGeometry width="100" height="100" relative="1" as="geometry">
            <mxPoint x="590" y="190" as="sourcePoint" />
            <mxPoint x="690" y="90" as="targetPoint" />
            <Array as="points">
              <mxPoint x="1677" y="120" />
            </Array>
          </mxGeometry>
        </mxCell>
        <mxCell id="D-E3E2ECpoi-iPH8ubSQ-250" value="" style="edgeStyle=elbowEdgeStyle;elbow=vertical;rounded=0;fontColor=#46495D;endArrow=none;endFill=0;strokeWidth=8;strokeColor=#788AA3;" edge="1" parent="1">
          <mxGeometry width="100" height="100" relative="1" as="geometry">
            <mxPoint x="598" y="117" as="sourcePoint" />
            <mxPoint x="598" y="169" as="targetPoint" />
          </mxGeometry>
        </mxCell>
        <mxCell id="D-E3E2ECpoi-iPH8ubSQ-257" value="" style="line;strokeWidth=4;direction=south;html=1;rounded=0;sketch=0;fillColor=#B2C9AB;fontSize=16;fontColor=#46495D;strokeColor=#788AA3;" vertex="1" parent="1">
          <mxGeometry x="595" y="333" width="10" height="655" as="geometry" />
        </mxCell>
        <mxCell id="D-E3E2ECpoi-iPH8ubSQ-258" value="" style="line;strokeWidth=4;html=1;perimeter=backbonePerimeter;points=[];outlineConnect=0;rounded=0;sketch=0;fillColor=#B2C9AB;fontSize=16;fontColor=#46495D;strokeColor=#788AA3;" vertex="1" parent="1">
          <mxGeometry x="598" y="383" width="104" height="10" as="geometry" />
        </mxCell>
        <mxCell id="D-E3E2ECpoi-iPH8ubSQ-263" value="监测平台前台" style="whiteSpace=wrap;rounded=1;fillColor=#B2C9AB;strokeColor=none;shadow=1;fontColor=#46495D;fontStyle=1;fontSize=16;" vertex="1" parent="1">
          <mxGeometry x="669.9999999999998" y="360.0000000000001" width="120" height="60" as="geometry" />
        </mxCell>
        <mxCell id="D-E3E2ECpoi-iPH8ubSQ-266" value="" style="line;strokeWidth=4;html=1;perimeter=backbonePerimeter;points=[];outlineConnect=0;rounded=0;sketch=0;fillColor=#B2C9AB;fontSize=16;fontColor=#46495D;" vertex="1" parent="1">
          <mxGeometry x="790" y="383" width="81" height="10" as="geometry" />
        </mxCell>
        <mxCell id="D-E3E2ECpoi-iPH8ubSQ-267" value="http:192.168.2.212:8000&#xa;用户名：admin密码：admin" style="whiteSpace=wrap;rounded=1;shadow=1;fontStyle=1;fontSize=16;" vertex="1" parent="1">
          <mxGeometry x="845" y="360" width="221" height="56" as="geometry" />
        </mxCell>
        <mxCell id="D-E3E2ECpoi-iPH8ubSQ-269" value="" style="edgeStyle=orthogonalEdgeStyle;curved=0;rounded=1;sketch=0;orthogonalLoop=1;jettySize=auto;html=1;strokeColor=#788AA3;fillColor=#B2C9AB;fontSize=18;fontColor=#46495D;" edge="1" parent="1">
          <mxGeometry relative="1" as="geometry">
            <mxPoint x="1076.9999999999986" y="500" as="sourcePoint" />
            <mxPoint x="1076.9999999999986" y="460" as="targetPoint" />
          </mxGeometry>
        </mxCell>
        <mxCell id="D-E3E2ECpoi-iPH8ubSQ-270" value="" style="line;strokeWidth=4;html=1;perimeter=backbonePerimeter;points=[];outlineConnect=0;rounded=0;sketch=0;fillColor=#B2C9AB;fontSize=16;fontColor=#46495D;strokeColor=#788AA3;" vertex="1" parent="1">
          <mxGeometry x="605" y="483" width="104" height="10" as="geometry" />
        </mxCell>
        <mxCell id="D-E3E2ECpoi-iPH8ubSQ-271" value="监测平台后台" style="whiteSpace=wrap;rounded=1;fillColor=#B2C9AB;strokeColor=none;shadow=1;fontColor=#46495D;fontStyle=1;fontSize=16;" vertex="1" parent="1">
          <mxGeometry x="676.9999999999998" y="460.0000000000001" width="120" height="60" as="geometry" />
        </mxCell>
        <mxCell id="D-E3E2ECpoi-iPH8ubSQ-272" value="" style="line;strokeWidth=4;html=1;perimeter=backbonePerimeter;points=[];outlineConnect=0;rounded=0;sketch=0;fillColor=#B2C9AB;fontSize=16;fontColor=#46495D;" vertex="1" parent="1">
          <mxGeometry x="797" y="483" width="81" height="10" as="geometry" />
        </mxCell>
        <mxCell id="D-E3E2ECpoi-iPH8ubSQ-273" value="http:192.168.2.212:8002&#xa;用户名：admin密码：admin" style="whiteSpace=wrap;rounded=1;shadow=1;fontStyle=1;fontSize=16;" vertex="1" parent="1">
          <mxGeometry x="852" y="460" width="221" height="56" as="geometry" />
        </mxCell>
      </root>
    </mxGraphModel>
  </diagram>
</mxfile>
